<svg height="496pt" viewBox="0 0 496 496" width="496pt" xmlns="http://www.w3.org/2000/svg"><path d="m248 0c-136.742188 0-248 111.246094-248 248s111.257812 248 248 248 248-111.246094 248-248-111.257812-248-248-248zm-144 248c0-9.945312 1.015625-19.65625 2.945312-29.039062 4.648438 10.359374 12.421876 19.429687 22.992188 25.535156 2.34375 1.351562 4.78125 2.488281 7.269531 3.480468-2.496093.992188-4.917969 2.160157-7.269531 3.519532-10.570312 6.105468-18.335938 15.175781-22.992188 25.535156-1.929687-9.375-2.945312-19.085938-2.945312-29.03125zm-12.976562 30.703125-51.414063-30.703125 51.421875-30.703125c-1.953125 9.941406-3.03125 20.199219-3.03125 30.703125s1.078125 20.761719 3.023438 30.703125zm267.039062-48.0625c-4.648438 2.679687-9.710938 4.34375-14.949219 5.007813-.707031-5.441407-1.785156-10.753907-3.359375-15.863282 3.519532-.242187 7.046875-1.113281 10.308594-2.992187h.007812c11.457032-6.625 15.394532-21.328125 8.785157-32.792969-6.609375-11.457031-21.3125-15.398438-32.792969-8.792969-3.292969 1.914063-5.886719 4.535157-7.871094 7.511719-3.671875-3.949219-7.664062-7.574219-11.953125-10.863281 3.203125-4.214844 7.175781-7.816407 11.824219-10.503907 18.480469-10.664062 41.914062-4.757812 53.410156 12.929688.582032.976562 1.214844 1.925781 1.773438 2.925781 10.097656 18.929688 3.523437 42.625-15.183594 53.433594zm-16 62.429687c3.824219 2.203126 5.136719 7.113282 2.929688 10.929688-2.199219 3.824219-7.105469 5.136719-10.921876 2.929688-3.824218-2.203126-5.132812-7.113282-2.925781-10.929688 2.199219-3.824219 7.09375-5.152344 10.917969-2.929688zm-180.125 13.859376c-3.824219 2.207031-8.730469.886718-10.929688-2.929688-2.207031-3.824219-.886718-8.726562 2.929688-10.929688 3.824219-2.199218 8.726562-.878906 10.917969 2.929688 2.207031 3.824219.898437 8.726562-2.917969 10.929688zm-8-104c-3.816406-2.203126-5.136719-7.105469-2.929688-10.929688 1.480469-2.558594 4.167969-4 6.945313-4 1.351563 0 2.726563.34375 3.984375 1.070312 3.824219 2.203126 5.132812 7.113282 2.925781 10.929688s-7.121093 5.136719-10.925781 2.929688zm180.125-13.859376c1.257812-.726562 2.632812-1.070312 3.992188-1.070312 2.769531 0 5.464843 1.441406 6.945312 4 2.207031 3.824219.886719 8.726562-2.929688 10.929688-3.8125 2.214843-8.71875.886718-10.917968-2.929688-2.214844-3.824219-.90625-8.726562 2.910156-10.929688zm-6.46875 50.929688h-57.074219c-2.414062-6.777344-7.75-12.113281-14.527343-14.527344v-57.074218c37.742187 3.769531 67.839843 33.867187 71.601562 71.601562zm-71.59375 112c0 4.414062-3.59375 8-8 8s-8-3.585938-8-8 3.59375-8 8-8 8 3.585938 8 8zm-8-96c-4.40625 0-8-3.585938-8-8s3.59375-8 8-8 8 3.585938 8 8-3.59375 8-8 8zm-8-112c0-4.414062 3.59375-8 8-8s8 3.585938 8 8-3.59375 8-8 8-8-3.585938-8-8zm53.503906-32.511719c18.566406 6.207031 35.40625 16.113281 49.761719 28.816407-11.175781-1.058594-22.761719 1.167968-33.203125 7.191406-2.328125 1.34375-4.542969 2.847656-6.636719 4.496094.382813-2.632813.574219-5.304688.574219-7.992188 0-12.128906-3.921875-23.335938-10.496094-32.511719zm-5.503906 32.511719c0 5.335938-1.113281 10.535156-3.136719 15.382812-4.925781-2.054687-10.085937-3.65625-15.390625-4.871093 1.566406-3.191407 2.527344-6.726563 2.527344-10.511719 0-13.230469-10.769531-24-24-24s-24 10.769531-24 24c0 3.785156.960938 7.320312 2.527344 10.503906-5.304688 1.214844-10.457032 2.816406-15.390625 4.871094-2.023438-4.839844-3.136719-10.039062-3.136719-15.375 0-22.054688 17.945312-40 40-40s40 17.945312 40 40zm-96 0c0 2.6875.191406 5.359375.566406 7.992188-2.085937-1.648438-4.300781-3.144532-6.628906-4.488282-10.441406-6.023437-22.027344-8.246094-33.203125-7.191406 14.355469-12.710938 31.195313-22.617188 49.761719-28.824219-6.574219 9.175781-10.496094 20.382813-10.496094 32.511719zm48 24.40625v57.074219c-6.777344 2.414062-12.113281 7.75-14.527344 14.527343h-57.074218c3.769531-37.742187 33.867187-67.839843 71.601562-71.601562zm-71.59375 87.59375h57.074219c2.414062 6.777344 7.75 12.113281 14.527343 14.527344v57.074218c-37.742187-3.769531-67.839843-33.867187-71.601562-71.601562zm34.089844 128.511719c-18.59375-6.214844-35.449219-16.136719-49.808594-28.863281 1.777344.167968 3.550781.34375 5.34375.34375 9.496094 0 19.113281-2.417969 27.90625-7.496094 2.328125-1.34375 4.542969-2.847656 6.636719-4.496094-.382813 2.640625-.574219 5.3125-.574219 8 0 12.128906 3.921875 23.335938 10.496094 32.511719zm5.503906-32.511719c0-5.335938 1.113281-10.535156 3.136719-15.382812 4.925781 2.054687 10.085937 3.65625 15.390625 4.871093-1.566406 3.191407-2.527344 6.726563-2.527344 10.511719 0 13.230469 10.769531 24 24 24s24-10.769531 24-24c0-3.785156-.960938-7.320312-2.527344-10.503906 5.304688-1.214844 10.457032-2.816406 15.390625-4.871094 2.023438 4.839844 3.136719 10.039062 3.136719 15.375 0 22.054688-17.945312 40-40 40s-40-17.945312-40-40zm96 0c0-2.6875-.191406-5.359375-.566406-7.992188 2.085937 1.648438 4.300781 3.144532 6.628906 4.488282 8.800781 5.078125 18.417969 7.496094 27.90625 7.496094 1.792969 0 3.566406-.175782 5.34375-.34375-14.359375 12.726562-31.222656 22.65625-49.816406 28.871093 6.582031-9.183593 10.503906-20.390625 10.503906-32.519531zm-48-24.40625v-57.074219c6.777344-2.414062 12.113281-7.75 14.527344-14.527343h57.074218c-3.769531 37.742187-33.867187 67.839843-71.601562 71.601562zm43.824219-230.808594 52.398437-29.257812.816406 60.082031c-15.429687-13.488281-33.4375-24.023437-53.214843-30.824219zm-46.105469-8.496094c-1.878906-.191406-3.789062-.289062-5.71875-.289062s-3.839844.097656-5.71875.289062c-8.503906.304688-16.867188 1.152344-24.984375 2.734376l30.703125-51.421876 30.703125 51.421876c-8.117187-1.582032-16.480469-2.429688-24.984375-2.734376zm-110.75 39.3125.808594-60.074218 52.398437 29.257812c-19.777343 6.800782-37.777343 17.335938-53.207031 30.816406zm-18.449219 46.695313c11.496094-17.6875 34.9375-23.59375 53.410157-12.9375 4.644531 2.679687 8.621093 6.28125 11.824218 10.503906-4.289062 3.289063-8.28125 6.914063-11.953125 10.863281-1.976562-2.972656-4.578125-5.597656-7.871093-7.511718h-.007813c-11.457031-6.597656-26.167969-2.664063-32.785156 8.792968-6.617188 11.464844-2.671875 26.167969 8.792969 32.792969 3.261718 1.878907 6.78125 2.75 10.308593 2.992188-1.574219 5.109375-2.652343 10.429687-3.359375 15.863281-5.230468-.664062-10.320312-2.328125-14.949218-5.007812-18.707032-10.808594-25.28125-34.511719-15.1875-53.425782.570312-1 1.195312-1.949218 1.777343-2.925781zm13.417969 91.0625c4.636719-2.679687 9.71875-4.335937 14.949219-5 .707031 5.410156 1.777343 10.703125 3.34375 15.792969-3.519531.238281-7.039063 1.183594-10.285157 3.0625h-.007812c-11.457031 6.625-15.394531 21.328125-8.785156 32.792968 4.441406 7.6875 12.519531 11.992188 20.832031 11.992188 4.0625 0 8.183594-1.03125 11.960937-3.199219 3.292969-1.914062 5.886719-4.535156 7.871094-7.511719 3.671875 3.949219 7.664063 7.574219 11.953125 10.863282-3.203125 4.214844-7.175781 7.816406-11.824219 10.503906-18.496093 10.648438-41.914062 4.75-53.410156-12.929688-.582031-.972656-1.214844-1.933593-1.78125-2.925781-10.097656-18.9375-3.523437-42.632812 15.183594-53.441406zm58.238281 133.855469-52.398437 29.257812-.816406-60.082031c15.429687 13.488281 33.4375 24.023437 53.214843 30.824219zm46.105469 8.496094c1.878906.191406 3.789062.289062 5.71875.289062s3.839844-.097656 5.71875-.289062c8.503906-.304688 16.867188-1.152344 24.984375-2.734376l-30.703125 51.421876-30.703125-51.421876c8.117187 1.582032 16.480469 2.429688 24.984375 2.734376zm110.75-39.3125-.808594 60.074218-52.398437-29.257812c19.777343-6.800782 37.777343-17.335938 53.207031-30.816406zm18.441406-46.6875c-11.496094 17.6875-34.921875 23.59375-53.410156 12.929687-4.648438-2.679687-8.621094-6.28125-11.824219-10.503906 4.289063-3.289063 8.28125-6.914063 11.953125-10.863281 1.976563 2.972656 4.578125 5.597656 7.871094 7.511718h.007812c3.769532 2.167969 7.890626 3.199219 11.953126 3.199219 8.304687 0 16.390624-4.304687 20.832031-11.992187 6.617187-11.464844 2.671875-26.167969-8.792969-32.792969-3.253906-1.871094-6.773438-2.808594-10.292969-3.054688 1.566407-5.097656 2.636719-10.390625 3.34375-15.800781 5.238281.664062 10.320313 2.328125 14.949219 5.007812 18.707031 10.808594 25.28125 34.511719 15.183594 53.425782-.558594 1.007812-1.191406 1.957031-1.773438 2.933594zm-5.410156-70.207032c-2.34375-1.351562-4.765625-2.527344-7.253906-3.519531 2.480468-.992187 4.917968-2.128906 7.253906-3.480469 10.570312-6.105468 18.335938-15.175781 22.992188-25.535156 1.929687 9.375 2.945312 19.085938 2.945312 29.03125s-1.015625 19.65625-2.945312 29.039062c-4.648438-10.367187-12.421876-19.4375-22.992188-25.535156zm38.914062-34.207031 51.414063 30.703125-51.421875 30.703125c1.953125-9.941406 3.03125-20.199219 3.03125-30.703125s-1.078125-20.761719-3.023438-30.703125zm8.382813-13.625 37.753906-67.625c17.679688 31.953125 28 68.488281 28.765625 107.34375zm-14.144531-7.496094c-3.101563-9.03125-6.917969-17.726562-11.519532-25.953125-.382812-.734375-.71875-1.496094-1.136718-2.222656-1-1.726562-2.078125-3.375-3.222656-4.953125-4.464844-7.085937-9.449219-13.800781-14.9375-20.078125l60.082031.816406zm-106.878906-113.535156-39.726563-66.519531c38.855469.757812 75.398437 11.078125 107.351563 28.765625zm-88.664063 0-67.617187-37.761719c31.953124-17.679687 68.488281-28 107.335937-28.757812zm-91.007813 80.40625c-1.144531 1.578125-2.230468 3.226563-3.222656 4.953125-.425781.726562-.753906 1.480469-1.136718 2.222656-4.601563 8.226563-8.410157 16.921875-11.511719 25.953125l-29.257813-52.398437 60.082032-.816406c-5.503907 6.277343-10.488282 12.992187-14.953126 20.085937zm-30.023437 40.625-66.519531 39.71875c.757812-38.855469 11.078125-75.398437 28.765625-107.351563zm0 88.65625-37.761719 67.625c-17.679687-31.953125-28-68.488281-28.757812-107.34375zm14.144531 7.496094c3.101563 9.03125 6.917969 17.726562 11.519532 25.953125.382812.734375.71875 1.496094 1.136718 2.222656.6875 1.199219 1.511719 2.265625 2.277344 3.390625 4.707031 7.664063 10 14.90625 15.890625 21.648437l-60.082031-.816406zm106.878906 113.535156 39.726563 66.519531c-38.855469-.765625-75.398437-11.085937-107.351563-28.765625zm88.664063 0 67.617187 37.761719c-31.953124 17.679687-68.488281 28-107.335937 28.757812zm91.960937-81.96875c.757813-1.125 1.582032-2.191406 2.277344-3.390625.425782-.726562.753906-1.480469 1.136719-2.222656 4.601563-8.226563 8.410156-16.921875 11.511719-25.953125l29.257812 52.398437-60.082031.816406c5.898437-6.742187 11.195313-13.984374 15.898437-21.648437zm29.070313-39.0625 66.519531-39.71875c-.765625 38.855469-11.085937 75.390625-28.765625 107.351563zm33.136719-164.3125-77.464844-1.039063-1.054688-77.472656c32.070313 19.457032 59.0625 46.457032 78.519532 78.511719zm-318.472656-78.511719-1.046876 77.464844-77.464843 1.039062c19.449219-32.054687 46.449219-59.054687 78.511719-78.503906zm-78.519532 318.480469 77.464844 1.039063 1.054688 77.472656c-32.070313-19.457032-59.0625-46.457032-78.519532-78.511719zm318.472656 78.511719 1.046876-77.464844 77.464843-1.039062c-19.449219 32.054687-46.449219 59.054687-78.511719 78.503906zm0 0"/><path d="m288 40h16v16h-16zm0 0"/><path d="m178.640625 47.871094 13.859375-8 8 13.859375-13.859375 7.996093zm0 0"/><path d="m87.863281 109.359375 8-13.855469 13.855469 8-8 13.855469zm0 0"/><path d="m40 192h16v16h-16zm0 0"/><path d="m39.859375 303.515625 13.859375-8 8 13.855469-13.859375 8zm0 0"/><path d="m95.507812 400.117188 8-13.855469 13.855469 7.996093-7.996093 13.859376zm0 0"/><path d="m192 440h16v16h-16zm0 0"/><path d="m295.5 442.289062 13.859375-8 8 13.859376-13.859375 7.996093zm0 0"/><path d="m386.257812 392.496094 8-13.855469 13.855469 8-8 13.855469zm0 0"/><path d="m440 288h16v16h-16zm0 0"/><path d="m434.269531 186.648438 13.855469-8 8 13.855468-13.855469 8zm0 0"/><path d="m378.632812 101.710938 7.996094-13.855469 13.859375 7.996093-8 13.859376zm0 0"/><path d="m280 208h16v16h-16zm0 0"/><path d="m200 208h16v16h-16zm0 0"/><path d="m200 272h16v16h-16zm0 0"/><path d="m280 272h16v16h-16zm0 0"/></svg>