<svg id="Layer_1" enable-background="new 0 0 512 512" height="512" viewBox="0 0 512 512" width="512" xmlns="http://www.w3.org/2000/svg"><path d="m62.803 416.641c-18.154 0-32.923 14.769-32.923 32.923 0 18.153 14.77 32.922 32.923 32.922s32.922-14.769 32.922-32.922c0-18.154-14.768-32.923-32.922-32.923zm0 50.845c-9.883 0-17.923-8.04-17.923-17.922 0-9.883 8.041-17.923 17.923-17.923s17.922 8.04 17.922 17.923c0 9.882-8.039 17.922-17.922 17.922z"/><path d="m489.078 54.621h-364.336c-3.861-30.75-30.153-54.621-61.933-54.621-34.577 0-62.44 27.992-62.44 62.44 0 4.197-.004 384.786-.004 387.123 0 34.288 27.901 62.502 62.534 62.436h426.179c12.439 0 22.558-10.12 22.558-22.558v-412.261c-.001-12.439-10.12-22.559-22.558-22.559zm-473.709 7.819c0-26.164 21.16-47.44 47.44-47.44 26.159 0 47.44 21.281 47.44 47.44v346.603c-25.009-29.24-69.901-29.202-94.88-.014zm47.53 434.56c-26.095 0-47.53-21.006-47.53-47.609.094-26.078 21.335-47.265 47.434-47.265 26.158 0 47.439 21.281 47.439 47.438 0 26.125-21.229 47.383-47.343 47.436zm433.736-7.558c0 4.168-3.39 7.558-7.558 7.558h-385.742c5.527-4.73 10.218-10.402 13.825-16.771 2.092.878-19.145.583 379.475.583zm0-58.631h-66.572c-4.142 0-7.5 3.358-7.5 7.5s3.358 7.5 7.5 7.5h66.572v20h-373.551c2.358-8.737 2.165-15.25 2.165-20h274.814c4.142 0 7.5-3.358 7.5-7.5s-3.358-7.5-7.5-7.5h-274.814v-20h371.386zm0-35h-371.386v-25.993l6.047 6.047c1.416 1.416 3.712 1.416 5.128 0l12.49-12.49c.659-.659.998-1.509 1.044-2.372.046.863.385 1.713 1.044 2.372l12.49 12.49c1.416 1.416 3.712 1.416 5.128 0l12.49-12.49c.659-.659.998-1.509 1.044-2.372.046.863.385 1.713 1.044 2.372l12.49 12.49c1.416 1.416 3.712 1.416 5.128 0l12.49-12.49c.659-.659.998-1.509 1.044-2.372.046.863.385 1.713 1.044 2.372l12.49 12.49c1.416 1.416 3.712 1.416 5.128 0l12.49-12.49c.659-.659.998-1.509 1.044-2.372.046.863.385 1.713 1.044 2.372l12.49 12.49c1.416 1.416 3.712 1.416 5.128 0l12.49-12.49c.659-.659.998-1.509 1.044-2.372.046.863.385 1.713 1.044 2.372l12.49 12.49c1.416 1.416 3.712 1.416 5.128 0l12.49-12.49c.659-.659.998-1.509 1.044-2.372.046.863.385 1.713 1.044 2.372l12.49 12.49c1.416 1.416 3.712 1.416 5.128 0l12.49-12.49c.659-.659.998-1.509 1.044-2.372.046.863.385 1.713 1.044 2.372l12.49 12.49c1.416 1.416 3.712 1.416 5.128 0l12.49-12.49c.659-.659.998-1.509 1.044-2.372.046.863.385 1.713 1.044 2.372l12.49 12.49c1.416 1.416 3.712 1.416 5.128 0l12.49-12.49c.659-.659.998-1.509 1.044-2.372.046.863.385 1.713 1.044 2.372l12.49 12.49c1.416 1.416 3.712 1.416 5.128 0l12.49-12.49c.659-.659.998-1.509 1.044-2.372.046.863.385 1.713 1.044 2.372l12.49 12.49c1.416 1.416 3.712 1.416 5.128 0l12.49-12.49c.659-.659.998-1.509 1.044-2.372.046.863.385 1.713 1.044 2.372l12.49 12.49c1.416 1.416 3.712 1.416 5.128 0l6.061-6.061v26.007zm0-43.993-6.061-6.061c-1.416-1.416-3.712-1.416-5.128 0l-12.49 12.49c-.659.659-.998 1.509-1.044 2.372-.046-.863-.385-1.713-1.044-2.372l-12.49-12.49c-1.416-1.416-3.712-1.416-5.128 0l-12.49 12.49c-.659.659-.998 1.509-1.044 2.372-.046-.863-.385-1.713-1.044-2.372l-12.49-12.49c-1.416-1.416-3.712-1.416-5.128 0l-12.49 12.49c-.659.659-.998 1.509-1.044 2.372-.046-.863-.385-1.713-1.044-2.372l-12.49-12.49c-1.416-1.416-3.712-1.416-5.128 0l-12.49 12.49c-.659.659-.998 1.509-1.044 2.372-.046-.863-.385-1.713-1.044-2.372l-12.49-12.49c-1.416-1.416-3.712-1.416-5.128 0l-12.49 12.49c-.659.659-.998 1.509-1.044 2.372-.046-.863-.385-1.713-1.044-2.372l-12.49-12.49c-1.416-1.416-3.712-1.416-5.128 0l-12.49 12.49c-.659.659-.998 1.509-1.044 2.372-.046-.863-.385-1.713-1.044-2.372l-12.49-12.49c-1.416-1.416-3.712-1.416-5.128 0l-12.49 12.49c-.659.659-.998 1.509-1.044 2.372-.046-.863-.385-1.713-1.044-2.372l-12.49-12.49c-1.416-1.416-3.712-1.416-5.128 0l-12.49 12.49c-.659.659-.998 1.509-1.044 2.372-.046-.863-.385-1.713-1.044-2.372l-12.49-12.49c-1.416-1.416-3.712-1.416-5.128 0l-12.49 12.49c-.659.659-.998 1.509-1.044 2.372-.046-.863-.385-1.713-1.044-2.372l-12.49-12.49c-1.416-1.416-3.712-1.416-5.128 0l-12.49 12.49c-.659.659-.998 1.509-1.044 2.372-.046-.863-.385-1.713-1.044-2.372l-12.49-12.49c-1.416-1.416-3.712-1.416-5.128 0l-12.49 12.49c-.659.659-.998 1.509-1.044 2.372-.046-.863-.385-1.713-1.044-2.372l-12.49-12.49c-1.416-1.416-3.712-1.416-5.128 0l-6.047 6.047v-25.993h371.386v26.007zm0-76.008h-234.572c-4.142 0-7.5 3.358-7.5 7.5s3.358 7.5 7.5 7.5h234.573v20h-371.387v-20h106.813c4.142 0 7.5-3.358 7.5-7.5s-3.358-7.5-7.5-7.5h-106.813v-20h371.386zm0-35h-371.386v-25.993l6.047 6.047c1.416 1.416 3.712 1.416 5.128 0l12.49-12.49c.659-.659.998-1.509 1.044-2.372.046.863.385 1.713 1.044 2.372l12.49 12.49c1.416 1.416 3.712 1.416 5.128 0l12.49-12.49c.659-.659.998-1.509 1.044-2.372.046.863.385 1.713 1.044 2.372l12.49 12.49c1.416 1.416 3.712 1.416 5.128 0l12.49-12.49c.659-.659.998-1.509 1.044-2.372.046.863.385 1.713 1.044 2.372l12.49 12.49c1.416 1.416 3.712 1.416 5.128 0l12.49-12.49c.659-.659.998-1.509 1.044-2.372.046.863.385 1.713 1.044 2.372l12.49 12.49c1.416 1.416 3.712 1.416 5.128 0l12.49-12.49c.659-.659.998-1.509 1.044-2.372.046.863.385 1.713 1.044 2.372l12.49 12.49c1.416 1.416 3.712 1.416 5.128 0l12.49-12.49c.659-.659.998-1.509 1.044-2.372.046.863.385 1.713 1.044 2.372l12.49 12.49c1.416 1.416 3.712 1.416 5.128 0l12.49-12.49c.659-.659.998-1.509 1.044-2.372.046.863.385 1.713 1.044 2.372l12.49 12.49c1.416 1.416 3.712 1.416 5.128 0l12.49-12.49c.659-.659.998-1.509 1.044-2.372.046.863.385 1.713 1.044 2.372l12.49 12.49c1.416 1.416 3.712 1.416 5.128 0l12.49-12.49c.659-.659.998-1.509 1.044-2.372.046.863.385 1.713 1.044 2.372l12.49 12.49c1.416 1.416 3.712 1.416 5.128 0l12.49-12.49c.659-.659.998-1.509 1.044-2.372.046.863.385 1.713 1.044 2.372l12.49 12.49c1.416 1.416 3.712 1.416 5.128 0l12.49-12.49c.659-.659.998-1.509 1.044-2.372.046.863.385 1.713 1.044 2.372l12.49 12.49c1.416 1.416 3.712 1.416 5.128 0l6.061-6.061v26.007zm0-43.993-6.061-6.061c-1.416-1.416-3.712-1.416-5.128 0l-12.49 12.49c-.659.659-.998 1.509-1.044 2.372-.046-.863-.385-1.713-1.044-2.372l-12.49-12.49c-1.416-1.416-3.712-1.416-5.128 0l-12.49 12.49c-.659.659-.998 1.509-1.044 2.372-.046-.863-.385-1.713-1.044-2.372l-12.49-12.49c-1.416-1.416-3.712-1.416-5.128 0l-12.49 12.49c-.659.659-.998 1.509-1.044 2.372-.046-.863-.385-1.713-1.044-2.372l-12.49-12.49c-1.416-1.416-3.712-1.416-5.128 0l-12.49 12.49c-.659.659-.998 1.509-1.044 2.372-.046-.863-.385-1.713-1.044-2.372l-12.49-12.49c-1.416-1.416-3.712-1.416-5.128 0l-12.49 12.49c-.659.659-.998 1.509-1.044 2.372-.046-.863-.385-1.713-1.044-2.372l-12.49-12.49c-1.416-1.416-3.712-1.416-5.128 0l-12.49 12.49c-.659.659-.998 1.509-1.044 2.372-.046-.863-.385-1.713-1.044-2.372l-12.49-12.49c-1.416-1.416-3.712-1.416-5.128 0l-12.49 12.49c-.659.659-.998 1.509-1.044 2.372-.046-.863-.385-1.713-1.044-2.372l-12.49-12.49c-1.416-1.416-3.712-1.416-5.128 0l-12.49 12.49c-.659.659-.998 1.509-1.044 2.372-.046-.863-.385-1.713-1.044-2.372l-12.49-12.49c-1.416-1.416-3.712-1.416-5.128 0l-12.49 12.49c-.659.659-.998 1.509-1.044 2.372-.046-.863-.385-1.713-1.044-2.372l-12.49-12.49c-1.416-1.416-3.712-1.416-5.128 0l-12.49 12.49c-.659.659-.998 1.509-1.044 2.372-.046-.863-.385-1.713-1.044-2.372l-12.49-12.49c-1.416-1.416-3.712-1.416-5.128 0l-12.49 12.49c-.659.659-.998 1.509-1.044 2.372-.046-.863-.385-1.713-1.044-2.372l-12.49-12.49c-1.416-1.416-3.712-1.416-5.128 0l-6.047 6.047v-25.993h371.386v26.007zm0-41.007h-371.386v-20h371.386zm0-70.001h-146.572c-4.142 0-7.5 3.358-7.5 7.5s3.358 7.5 7.5 7.5h146.572v20h-371.386v-20h194.813c4.142 0 7.5-3.358 7.5-7.5s-3.358-7.5-7.5-7.5h-194.813v-16.188h363.828c4.167 0 7.558 3.391 7.558 7.558z"/></svg>