<svg id="Solid" height="512" viewBox="0 0 512 512" width="512" xmlns="http://www.w3.org/2000/svg"><path d="m368.917 292.354-122.083-45.35-5.811 2.663-.756 16.626 98.518 36.589-5.57 14.998-93.71-34.803-2.408 52.966 133.374-9.499z"/><path d="m314.154 216.149 52.18 19.386-1.928-42.418z"/><path d="m241.84 231.692 121.783-55.816-.998-21.949-119.745 54.882z"/><path d="m367.124 252.896-73.537-27.32-26.185 12.001 100.726 37.416z"/><path d="m250.699 351.114-42.354 3.017 24.314 49.643z"/><path d="m346.826 344.268-8.99 26.253 52.861 107.922 22.897.453-65.971-134.685z"/><path d="m364.839 342.985 66.746 136.266 22.891.452-67.722-138.278z"/><path d="m455.26 352.197v-.011l-.401-15.612-50.89 3.624 53.804 109.861-1.075-41.88z"/><path d="m484.762 345.781a7.942 7.942 0 0 0 -5.5-2.2c-.071 0-.141 0-.212 0a8 8 0 0 0 -7.792 8.2l2.872 111.969a8 8 0 1 0 16-.411l-2.876-111.963a7.948 7.948 0 0 0 -2.492-5.595z"/><path d="m49.84 231.692 121.783-55.816-.998-21.949-119.744 54.882z"/><path d="m301.483 476.681 71.224 1.407-42.201-86.16z"/><path d="m172.406 193.117-50.252 23.032 52.18 19.386z"/><path d="m175.124 252.896-73.537-27.32-26.185 12.001 100.726 37.416z"/><path d="m51.698 190.834 118.143-54.148-.997-21.939-116.107 53.213z"/><path d="m53.554 149.986 100.338-45.986h-98.247z"/><path d="m245.554 149.986 100.338-45.986h-98.247z"/><path d="m280 72h48v16h-48z"/><path d="m243.697 190.834 118.144-54.148-.997-21.939-116.107 53.213z"/><path d="m88 72h48v16h-48z"/><path d="m122.255 473.142 46.024.909-48.546-99.123z"/><path d="m88.816 393.421h16v48h-16z" transform="matrix(1 -.026 .026 1 -10.7 2.627)"/><path d="m307.434 347.073-42.201 123.209 2.811 5.739 16.64.329 44.808-130.847z"/><path d="m81.848 457.818h-.209a7.964 7.964 0 0 1 -5.073-1.818h-20.566a8 8 0 0 0 0 16h50.22l-.38-14.8z"/><path d="m176.917 292.354-122.083-45.354-5.811 2.663-.755 16.626 114.517 42.531-5.57 15-109.71-40.743-3.235 71.166 40.4-18.515 6.666 14.544-47.88 21.946-1.043 22.882 10.254-4.7 6.666 14.545-17.733 8.126-1.228 26.929h33.016l-1.388-53.952a8 8 0 0 1 7.792-8.2l23.993-.617-.617-23.993a8 8 0 0 1 7.43-8.184l68.491-4.878z"/><path d="m268.035 349.879-25.424 74.215 12.669 25.867 34.818-101.653z"/><path d="m130.093 359.704 56.176 114.702 22.893.452-57.163-116.714z"/><path d="m169.214 356.917 57.937 118.296 22.903.453-58.925-120.309z"/></svg>