<?xml version="1.0"?>
<svg xmlns="http://www.w3.org/2000/svg" id="Outline" viewBox="0 0 512 512" width="512" height="512"><path d="M48,464a8.009,8.009,0,0,1,8-8h8V440H40.372L41.6,413.071l17.737-8.129L52.667,390.4l-10.254,4.7,1.04-22.879,47.88-21.946-6.666-14.544-40.4,18.515,3.235-71.166,109.71,40.745,5.57-15L48.268,266.293l.755-16.626L54.834,247l122.083,45.35,1.273,28.009,15.983-.726-10.181-224A8,8,0,0,0,176,88H152V64a8,8,0,0,0-8-8H80a8,8,0,0,0-8,8V88H48a8,8,0,0,0-7.992,7.637l-16,352A8,8,0,0,0,32,456h1.376A23.992,23.992,0,0,0,56,488H88V472H56A8.009,8.009,0,0,1,48,464Zm4.737-296.04,116.107-53.213,1,21.939L51.7,190.834Zm-1.856,40.849,119.744-54.882,1,21.949L49.84,231.692Zm121.525-15.692,1.928,42.418-52.18-19.386Zm-97,44.46,26.185-12,73.536,27.32,1,22.1ZM88,72h48V88H88Zm65.892,32L53.554,149.986,55.645,104Z"/><path d="M239.505,283.077l93.71,34.8,5.57-15-98.517-36.589.755-16.626L246.834,247l122.083,45.35.546,12.009,15.983-.726-9.454-208A8,8,0,0,0,368,88H344V64a8,8,0,0,0-8-8H272a8,8,0,0,0-8,8V88H240a8,8,0,0,0-7.992,7.637l-10.181,224,15.983.726Zm5.232-115.117,116.107-53.213,1,21.939L243.7,190.834Zm-1.856,40.849,119.744-54.882,1,21.949L241.84,231.692Zm121.525-15.692,1.928,42.418-52.18-19.386Zm-97,44.46,26.185-12,73.536,27.32,1,22.1ZM280,72h48V88H280Zm65.892,32L245.554,149.986,247.645,104Z"/><path d="M506.12,462.929l-2.876-111.963a24.027,24.027,0,0,0-32.57-21.81l-.035-1.361a8,8,0,0,0-8.566-7.774L110.6,345.052a8,8,0,0,0-7.43,8.184l.617,23.993-23.993.617a8,8,0,0,0-7.792,8.2l1.644,63.978a8,8,0,0,0,7.993,7.8l.209,0,23.992-.616.617,23.992a8,8,0,0,0,7.839,7.793l352.294,6.958.159,0a8,8,0,0,0,8-8.2l-.035-1.383a23.954,23.954,0,0,0,7.4,1.186q.315,0,.631-.009a24,24,0,0,0,23.377-24.607ZM169.214,356.917l21.915-1.56,58.925,120.309-22.9-.453Zm39.948,117.941-22.893-.452L130.093,359.7,152,358.144Zm33.449-50.764,25.424-74.215,22.063-1.571L255.28,449.961Zm-9.952-20.32-24.314-49.643,42.354-3.017Zm32.574,66.508,42.2-123.209,22.058-1.57L284.684,476.35l-16.64-.329Zm65.273-78.354,42.2,86.16-71.224-1.407Zm7.33-21.407,8.99-26.253.8-.057L413.594,478.9l-22.9-.453Zm27-27.536,21.915-1.56L454.476,479.7l-22.891-.452Zm92.934,107.074L403.969,340.2l50.89-3.624ZM89.435,441.618,88.2,393.635l15.994-.412,1.233,47.985Zm30.3-66.69,48.546,99.123-46.024-.909Zm368.2,94.127a8,8,0,0,1-13.8-5.305l-2.875-111.963a8,8,0,0,1,7.792-8.2c.071,0,.141,0,.212,0a8,8,0,0,1,7.99,7.794l2.876,111.963A7.952,7.952,0,0,1,487.928,469.055Z"/></svg>
