<svg id="GD001" height="512" viewBox="0 0 512 512" width="512" xmlns="http://www.w3.org/2000/svg" xmlns:xlink="http://www.w3.org/1999/xlink"><linearGradient id="New_Gradient_Swatch_2" gradientUnits="userSpaceOnUse" x1="109.087" x2="109.087" y1="11.728" y2="419.662"><stop offset="0" stop-color="#fc5c7d"/><stop offset=".129" stop-color="#f35e85"/><stop offset=".343" stop-color="#d9659b"/><stop offset=".616" stop-color="#b070bf"/><stop offset=".934" stop-color="#777ff0"/><stop offset="1" stop-color="#6a82fb"/></linearGradient><linearGradient id="New_Gradient_Swatch_2-2" x1="303.636" x2="303.636" xlink:href="#New_Gradient_Swatch_2" y1="11.728" y2="419.662"/><linearGradient id="New_Gradient_Swatch_2-3" x1="289.064" x2="289.064" xlink:href="#New_Gradient_Swatch_2" y1="11.728" y2="419.662"/><path d="m48 464a8.009 8.009 0 0 1 8-8h8v-16h-23.628l1.228-26.929 17.737-8.129-6.67-14.542-10.254 4.7 1.04-22.879 47.88-21.946-6.666-14.544-40.4 18.515 3.235-71.166 109.71 40.745 5.57-15-114.514-42.532.755-16.626 5.811-2.667 122.083 45.35 1.273 28.009 15.983-.726-10.181-224a8 8 0 0 0 -7.992-7.633h-24v-24a8 8 0 0 0 -8-8h-64a8 8 0 0 0 -8 8v24h-24a8 8 0 0 0 -7.992 7.637l-16 352a8 8 0 0 0 7.992 8.363h1.376a23.992 23.992 0 0 0 22.624 32h32v-16h-32a8.009 8.009 0 0 1 -8-8zm4.737-296.04 116.107-53.213 1 21.939-118.144 54.148zm-1.856 40.849 119.744-54.882 1 21.949-121.785 55.816zm121.525-15.692 1.928 42.418-52.18-19.386zm-97 44.46 26.185-12 73.536 27.32 1 22.1zm12.594-165.577h48v16h-48zm65.892 32-100.338 45.986 2.091-45.986z" fill="url(#New_Gradient_Swatch_2)"/><path d="m239.505 283.077 93.71 34.8 5.57-15-98.517-36.589.755-16.626 5.811-2.662 122.083 45.35.546 12.009 15.983-.726-9.454-208a8 8 0 0 0 -7.992-7.633h-24v-24a8 8 0 0 0 -8-8h-64a8 8 0 0 0 -8 8v24h-24a8 8 0 0 0 -7.992 7.637l-10.181 224 15.983.726zm5.232-115.117 116.107-53.213 1 21.939-118.144 54.148zm-1.856 40.849 119.744-54.882 1 21.949-121.785 55.816zm121.525-15.692 1.928 42.418-52.18-19.386zm-97 44.46 26.185-12 73.536 27.32 1 22.1zm12.594-165.577h48v16h-48zm65.892 32-100.338 45.986 2.091-45.986z" fill="url(#New_Gradient_Swatch_2-2)"/><path d="m506.12 462.929-2.876-111.963a24.027 24.027 0 0 0 -32.57-21.81l-.035-1.361a8 8 0 0 0 -8.566-7.774l-351.473 25.031a8 8 0 0 0 -7.43 8.184l.617 23.993-23.993.617a8 8 0 0 0 -7.792 8.2l1.644 63.978a8 8 0 0 0 7.993 7.8h.209l23.992-.616.617 23.992a8 8 0 0 0 7.839 7.793l352.294 6.958h.159a8 8 0 0 0 8-8.2l-.035-1.383a23.954 23.954 0 0 0 7.4 1.186q.315 0 .631-.009a24 24 0 0 0 23.377-24.607zm-336.906-106.012 21.915-1.56 58.925 120.309-22.9-.453zm39.948 117.941-22.893-.452-56.176-114.706 21.907-1.556zm33.449-50.764 25.424-74.215 22.063-1.571-34.818 101.653zm-9.952-20.32-24.314-49.643 42.354-3.017zm32.574 66.508 42.2-123.209 22.058-1.57-44.807 130.847-16.64-.329zm65.273-78.354 42.2 86.16-71.224-1.407zm7.33-21.407 8.99-26.253.8-.057 65.968 134.689-22.9-.453zm27-27.536 21.915-1.56 67.725 138.275-22.891-.452zm92.934 107.074-53.801-109.859 50.89-3.624zm-368.335-8.441-1.235-47.983 15.994-.412 1.233 47.985zm30.3-66.69 48.546 99.123-46.024-.909zm368.2 94.127a8 8 0 0 1 -13.8-5.305l-2.875-111.963a8 8 0 0 1 7.792-8.2h.212a8 8 0 0 1 7.99 7.794l2.876 111.963a7.952 7.952 0 0 1 -2.202 5.711z" fill="url(#New_Gradient_Swatch_2-3)"/></svg>