<svg id="Flat" height="512" viewBox="0 0 512 512" width="512" xmlns="http://www.w3.org/2000/svg"><path d="m192 448h-160l16-352h128z" fill="#0093b9"/><rect fill="#d6a045" height="32" rx="16" width="144" x="40" y="448"/><path d="m80 64h64v32h-64z" fill="#ebae48"/><g fill="#0085aa"><rect height="16" rx="8" transform="matrix(.909 -.417 .417 .909 -45.196 58.153)" width="144.465" x="38.402" y="124.625"/><rect height="16" rx="8" transform="matrix(.909 -.417 .417 .909 -61.872 61.775)" width="148.471" x="36.359" y="164.64"/><rect height="16" rx="8" transform="matrix(.909 -.417 .417 .909 -76.682 67.883)" width="137.888" x="48.241" y="201.625"/><rect height="16" rx="8" transform="matrix(.909 -.417 .417 .909 -128.586 76.272)" width="164.476" x="28.202" y="324.715"/><rect height="16" rx="8" transform="matrix(.909 -.417 .417 .909 -145.269 79.903)" width="168.472" x="26.169" y="364.73"/><rect height="16" rx="8" transform="matrix(.909 -.417 .417 .909 -161.722 83.789)" width="170.844" x="25.683" y="404.41"/><rect height="119.869" rx="8" transform="matrix(.348 -.937 .937 .348 -211.614 280.929)" width="16.001" x="88.194" y="232.691"/><rect height="152.471" rx="8" transform="matrix(.348 -.937 .937 .348 -170.088 275.691)" width="15.999" x="105.205" y="183.92"/><rect height="87.057" rx="8" transform="matrix(.348 -.937 .937 .348 -124.961 284.457)" width="15.999" x="134.065" y="188.556"/></g><path d="m384 448h-160l16-352h128z" fill="#86bc40"/><rect fill="#ebae48" height="32" rx="16" width="144" x="232" y="448"/><path d="m272 64h64v32h-64z" fill="#ebae48"/><rect fill="#7ba23f" height="16" rx="8" transform="matrix(.909 -.417 .417 .909 -27.739 138.147)" width="144.465" x="230.402" y="124.625"/><rect fill="#7ba23f" height="16" rx="8" transform="matrix(.909 -.417 .417 .909 -44.414 141.769)" width="148.471" x="228.359" y="164.64"/><rect fill="#7ba23f" height="16" rx="8" transform="matrix(.909 -.417 .417 .909 -59.224 147.877)" width="137.888" x="240.241" y="201.625"/><rect fill="#7ba23f" height="16" rx="8" transform="matrix(.909 -.417 .417 .909 -111.126 156.271)" width="164.476" x="220.202" y="324.715"/><rect fill="#7ba23f" height="16" rx="8" transform="matrix(.909 -.417 .417 .909 -127.807 159.907)" width="168.472" x="218.169" y="364.73"/><rect fill="#7ba23f" height="16" rx="8" transform="matrix(.909 -.417 .417 .909 -144.264 163.782)" width="170.844" x="217.683" y="404.41"/><rect fill="#7ba23f" height="119.869" rx="8" transform="matrix(.348 -.937 .937 .348 -86.456 460.919)" width="16.001" x="280.194" y="232.691"/><rect fill="#7ba23f" height="152.471" rx="8" transform="matrix(.348 -.937 .937 .348 -44.941 455.676)" width="15.999" x="297.205" y="183.92"/><rect fill="#7ba23f" height="87.057" rx="8" transform="matrix(.348 -.937 .937 .348 .19 464.444)" width="15.999" x="326.065" y="188.556"/><path d="m462.641 328 4.108 159.947-352.295-6.958-3.286-127.958z" fill="#ee5449"/><rect fill="#ebae48" height="32" rx="16" transform="matrix(-.026 -1 1 -.026 85.602 898.557)" width="144" x="408.69" y="391.563"/><path d="m80.816 385.421h32v64h-32z" fill="#ebae48" transform="matrix(1 -.026 .026 1 -10.684 2.623)"/><rect fill="#e5483e" height="144.467" rx="8" transform="matrix(.898 -.44 .44 .898 -168.37 108.284)" width="16" x="141.459" y="345.201"/><rect fill="#e5483e" height="148.471" rx="8" transform="matrix(.898 -.44 .44 .898 -163.862 125.782)" width="16" x="181.462" y="342.212"/><rect fill="#e5483e" height="152.476" rx="8" transform="matrix(.898 -.44 .44 .898 -159.352 143.284)" width="16" x="221.475" y="339.222"/><path d="m374.958 482.683-52.95-108.1 14.369-7.037 52.95 108.1a8 8 0 0 1 -3.666 10.7 8 8 0 0 1 -10.703-3.663z" fill="#e5483e"/><rect fill="#e5483e" height="168.473" rx="8" transform="matrix(.898 -.44 .44 .898 -141.306 213.281)" width="16.001" x="381.49" y="327.264"/><rect fill="#e5483e" height="170.844" rx="8" transform="matrix(.898 -.44 .44 .898 -136.498 230.517)" width="16" x="421.14" y="324.36"/><rect fill="#e5483e" height="16" rx="8" transform="matrix(.324 -.946 .946 .324 -175.024 576.191)" width="156.225" x="237.555" y="402.566"/><rect fill="#e5483e" height="16" rx="8" transform="matrix(.324 -.946 .946 .324 -194.643 537.866)" width="138.85" x="209.661" y="397.148"/><rect fill="#e5483e" height="16" rx="8" transform="matrix(.324 -.946 .946 .324 -195.089 493.87)" width="87.06" x="204.544" y="375.462"/></svg>